<?xml version="1.0" encoding="utf-8"?>
<!-- Generator: Adobe Illustrator 25.4.1, SVG Export Plug-In . SVG Version: 6.00 Build 0)  -->
<svg version="1.1" xmlns="http://www.w3.org/2000/svg" xmlns:xlink="http://www.w3.org/1999/xlink" x="0px" y="0px"
	 viewBox="0 0 629 629" style="enable-background:new 0 0 629 629;" xml:space="preserve">
<style type="text/css">
	.st0{fill:#FF3F6C;}
	.st1{fill:#FFFFFF;}
</style>
<g id="Layer_2">
	<rect class="st0" width="629" height="629"/>
</g>
<g id="Layer_1">
	<g>
		<path class="st1" d="M174.1,177.6c9.6-11.4,20-23.7,34.6-28.4c16.5-4.4,30.5,8.6,40.9,19.7c27.2,31.1,46.9,67.8,65.3,104.6
			c10-22.3,22.3-43.6,35.2-64.4c12.3-18.8,25-37.9,42.6-52.2c8.2-6.3,19.6-12.2,29.7-7c14.4,7.7,25.4,20.3,35.6,32.7
			c21.7,27.9,38.7,59.2,54.1,90.9c19.2,40.9,35.8,83.6,42.8,128.4c2.1,20.8,4,44.1-8.6,62.1c-9.7,14.1-28.1,19-44.4,16.3
			c-14.2-5-26.6-14.3-35.9-26.1c-22-27.3-35.2-60.3-47.3-92.8c-1.8-5.7-4-11.3-5.9-17c-1.3,5.8-2.9,11.5-4.7,17.1
			c-12.4,33-25.7,66.6-48.4,94.1c-9.1,11.2-21.2,19.8-34.7,24.7c-19.6,4.1-38.6-6.2-51.3-20.5c-24.8-27-38.6-61.9-51.3-95.8
			c-2.5-7-4.9-14-6.7-21.1c-2,7.3-4.5,14.4-7.1,21.5c-11.4,31.3-24.5,62.7-45.3,89c-11.3,13.5-26.1,26.8-44.5,27.7
			c-17,1.5-33.6-9.5-40-25.1c-9.3-21.5-6.6-45.9-2.4-68.3c8.8-42.9,25.3-83.9,44.5-123.2C136,234,152.9,204.2,174.1,177.6
			 M183.8,187c-21,26.8-37.7,56.7-52.7,87.2c-18.7,39.4-35.6,80.4-42.8,123.6c-2.5,12-2.6,24.4-1.3,36.5c1.4,11.4,6,23.7,16.5,29.7
			c10,5.9,23,3.5,32.2-3c16.4-11.4,27.3-28.9,36.7-46.2c20.1-38.6,33.4-80.4,43.4-122.6c10.6,43.3,24,86.3,45.2,125.7
			c8.4,14.6,17.3,29.7,31.1,39.7c6.9,6.2,16.1,10.6,25.6,9.6c10.6-1.1,19.6-7.8,26.9-15.1c12.7-13.1,22-29.1,30.2-45.3
			c17.4-35.7,29.5-73.9,38.9-112.4c11.7,46.7,26.3,93.4,51.4,134.8c9.4,14.5,20.5,29.5,37,36.2c11.7,4.7,26.3,0.6,33-10.3
			c8.1-12.9,8.7-29,7.5-43.8c-1.6-23.9-8.6-47-16.3-69.6c-15.2-43.7-35.3-85.6-59.8-124.8c-11.3-17.5-23.1-35.1-38.9-48.9
			c-5.6-4.9-13.9-9.6-21-4.7c-13.6,8.3-23.1,21.6-32.5,34.2c-23.2,33-42.3,69-58,106.1c-0.5,0.6-1.4,1.7-1.9,2.2
			c-1.3-4.2-2.7-8.4-4.5-12.4c-16.1-34.8-34-68.9-56.7-99.9c-7.8-10.2-15.8-20.6-26.3-28.1c-4.5-3.2-10.4-6-15.8-3.2
			C199.5,167.5,191.6,177.7,183.8,187"/>
		<path class="st1" d="M183.8,187c7.8-9.4,15.8-19.5,27.1-24.7c5.4-2.7,11.3,0,15.8,3.2c10.5,7.5,18.5,18,26.3,28.1
			c22.7,30.9,40.6,65.1,56.7,99.9c1.8,4,3.2,8.2,4.5,12.4c-20.9-35.6-40-72.6-66.2-104.7c-7.7-9-15.6-18.5-26.7-23.3
			c-6.3-2.7-12.7,0.9-17.9,4.3c-18.8,15.7-32.6,36.3-45.8,56.8c-30.8,49.1-54.1,102.9-69.3,158.9c7.2-43.2,24-84.3,42.8-123.6
			C146.1,243.8,162.8,213.9,183.8,187"/>
		<path class="st1" d="M406.7,163.4c7.1-4.9,15.4-0.2,21,4.7c15.8,13.8,27.5,31.4,38.9,48.9c24.5,39.2,44.6,81.2,59.8,124.8
			c7.6,22.6,14.6,45.7,16.3,69.6c-2.6-16.7-6.9-33-12.6-48.8c-14.5-43.6-34.4-85.2-58.8-124.1c-10.6-16.7-21.9-33.1-35.6-47.4
			c-5.5-5.4-11.3-11.1-18.9-13.6c-5.9-1.8-11.2,2.3-15.9,5.2c-12.6,9.9-22.5,22.8-31.9,35.7c-16.7,23.5-31.4,48.4-44.9,73.9
			c-2.2,4.1-4.9,7.9-8,11.4c15.7-37.2,34.8-73.1,58-106.1C383.6,185,393.1,171.7,406.7,163.4"/>
		<path class="st1" d="M203.4,182.2c5.2-3.4,11.6-7,17.9-4.3c11.1,4.8,19.1,14.4,26.7,23.3c26.2,32.1,45.4,69.1,66.2,104.7
			c-13.1,37.2-28.6,74.6-29.5,114.6c-0.7,12.9,2.8,25.4,7.5,37.2c-13.8-10.1-22.7-25.2-31.1-39.7c-21.2-39.4-34.6-82.4-45.2-125.7
			C208.1,256.2,201,219.3,203.4,182.2"/>
		<path class="st1" d="M400.9,182.8c4.7-2.9,10-7,15.9-5.2c7.5,2.4,13.3,8.2,18.9,13.6c13.7,14.3,25,30.7,35.6,47.4
			c24.3,38.9,44.3,80.5,58.8,124.1c5.7,15.8,9.9,32.2,12.6,48.8c1.2,14.8,0.6,30.9-7.5,43.8c-6.7,10.9-21.3,15-33,10.3
			c-16.5-6.7-27.6-21.8-37-36.2c-25-41.4-39.6-88.1-51.4-134.8C405.8,257.9,398.5,220.4,400.9,182.8"/>
		<path class="st1" d="M157.6,239c13.1-20.5,27-41.1,45.8-56.8c-2.4,37.1,4.7,74,12.4,110.1c-10,42.2-23.3,84-43.4,122.6
			c-9.4,17.3-20.3,34.7-36.7,46.2c-9.2,6.5-22.1,8.9-32.2,3C93,458.2,88.4,445.9,87,434.4c-1.3-12.1-1.2-24.6,1.3-36.5
			C103.6,342,126.8,288.2,157.6,239"/>
		<path class="st1" d="M369,218.4c9.4-12.9,19.2-25.7,31.9-35.7c-2.4,37.7,5,75.1,12.9,111.7c-9.4,38.6-21.5,76.7-38.9,112.4
			c-8.1,16.2-17.4,32.2-30.2,45.3c-7.4,7.2-16.3,14-26.9,15.1c-9.5,1.1-18.7-3.3-25.6-9.6c-4.7-11.8-8.1-24.4-7.5-37.2
			c0.9-40,16.4-77.4,29.5-114.6c0.5-0.6,1.4-1.7,1.9-2.2c3.1-3.5,5.8-7.3,8-11.4C337.6,266.8,352.4,242,369,218.4"/>
	</g>
</g>
</svg>
